<svg width="531" height="600" viewBox="0 0 531 600" fill="none" xmlns="http://www.w3.org/2000/svg">
<path fill-rule="evenodd" clip-rule="evenodd" d="M44.8713 419.225C-16.9327 334.044 -21.0734 221.397 71.6506 0H240.585L44.8713 419.225ZM265.651 108.511V254.715H205.579C196.69 254.715 190.886 245.388 194.813 237.413L254.992 115.209C257.173 110.78 261.404 108.548 265.651 108.511ZM265.651 347.871V599.5C249.264 587.848 233.35 576.762 217.995 566.065C167.095 530.608 122.337 499.428 86.8325 466.074H87.5469C121.081 389.106 192.976 348.403 265.651 347.871Z" fill="#EB5424"/>
<path fill-rule="evenodd" clip-rule="evenodd" d="M485.78 419.225C547.584 334.044 551.724 221.397 459 0H290.065L485.78 419.225ZM265 108.511V254.715H325.072C333.961 254.715 339.765 245.388 335.838 237.413L275.659 115.209C273.478 110.78 269.247 108.548 265 108.511ZM265 347.871V599.5C281.387 587.848 297.301 576.762 312.656 566.065C363.556 530.608 408.314 499.428 443.818 466.074H443.104C409.57 389.106 337.675 348.403 265 347.871Z" fill="#EB5424"/>
</svg>
